<svg width="1200" height="1400" viewBox="0 0 1200 1400" fill="none" xmlns="http://www.w3.org/2000/svg">
  <rect width="1200" height="1400" rx="56" fill="url(#bg)"/>
  <circle cx="920" cy="260" r="220" fill="#F0DEC0" fill-opacity="0.32"/>
  <circle cx="250" cy="1120" r="220" fill="#6C89A4" fill-opacity="0.22"/>
  <rect x="110" y="110" width="980" height="1180" rx="42" fill="#FCFEFF" fill-opacity="0.92"/>
  <rect x="180" y="180" width="840" height="92" rx="24" fill="#30475E"/>
  <rect x="230" y="214" width="180" height="24" rx="12" fill="#E7D0A8"/>
  <rect x="180" y="330" width="400" height="380" rx="30" fill="#E8F0F9"/>
  <rect x="620" y="330" width="400" height="220" rx="30" fill="#F5F0E6"/>
  <rect x="620" y="582" width="400" height="128" rx="30" fill="#30475E"/>
  <rect x="180" y="760" width="840" height="180" rx="34" fill="#FFFFFF"/>
  <rect x="180" y="980" width="840" height="190" rx="34" fill="#EDF3FA"/>
  <path d="M262 626C262 563.592 312.592 513 375 513C437.408 513 488 563.592 488 626V668H262V626Z" fill="#30475E"/>
  <circle cx="375" cy="475" r="76" fill="#CBAF87"/>
  <rect x="700" y="386" width="110" height="18" rx="9" fill="#30475E"/>
  <rect x="700" y="426" width="180" height="14" rx="7" fill="#9FAFBC"/>
  <rect x="700" y="462" width="150" height="14" rx="7" fill="#C3D4E4"/>
  <rect x="685" y="628" width="140" height="22" rx="11" fill="#F0DEC0"/>
  <rect x="685" y="668" width="220" height="14" rx="7" fill="#B5C7D8"/>
  <rect x="250" y="828" width="260" height="24" rx="12" fill="#30475E"/>
  <rect x="250" y="874" width="420" height="16" rx="8" fill="#A1B4C6"/>
  <rect x="760" y="816" width="190" height="46" rx="23" fill="#CBAF87"/>
  <rect x="250" y="1042" width="220" height="24" rx="12" fill="#30475E"/>
  <rect x="250" y="1088" width="520" height="16" rx="8" fill="#93A7BA"/>
  <rect x="250" y="1120" width="480" height="16" rx="8" fill="#C0D0DF"/>
  <rect x="814" y="1036" width="136" height="112" rx="26" fill="#30475E"/>
  <circle cx="882" cy="1092" r="28" fill="#F0DEC0"/>
  <defs>
    <linearGradient id="bg" x1="70" y1="50" x2="1090" y2="1340" gradientUnits="userSpaceOnUse">
      <stop stop-color="#D8E6F5"/>
      <stop offset="1" stop-color="#F5F8FC"/>
    </linearGradient>
  </defs>
</svg>
