<svg width="1600" height="1200" viewBox="0 0 1600 1200" fill="none" xmlns="http://www.w3.org/2000/svg">
  <rect width="1600" height="1200" rx="64" fill="url(#bg)"/>
  <circle cx="1240" cy="250" r="210" fill="#E4D4BB" fill-opacity="0.22"/>
  <circle cx="300" cy="980" r="280" fill="#6C89A4" fill-opacity="0.2"/>
  <rect x="120" y="120" width="1360" height="960" rx="40" fill="#F7FBFF" fill-opacity="0.88"/>
  <rect x="190" y="190" width="1220" height="110" rx="28" fill="#30475E"/>
  <rect x="240" y="228" width="240" height="30" rx="15" fill="#F6E1BF"/>
  <rect x="1190" y="223" width="140" height="40" rx="20" fill="#D5E4F6"/>
  <rect x="230" y="360" width="560" height="480" rx="34" fill="#EAF2FB"/>
  <rect x="850" y="360" width="500" height="310" rx="34" fill="#F4EFE4"/>
  <rect x="850" y="710" width="500" height="130" rx="30" fill="#30475E"/>
  <rect x="278" y="420" width="220" height="260" rx="28" fill="#30475E"/>
  <circle cx="608" cy="492" r="92" fill="#CBAF87"/>
  <rect x="530" y="626" width="160" height="22" rx="11" fill="#7E8A97"/>
  <rect x="530" y="666" width="190" height="18" rx="9" fill="#B2C2D1"/>
  <path d="M942 450C942 422.386 964.386 400 992 400H1210C1237.61 400 1260 422.386 1260 450V476H942V450Z" fill="#30475E"/>
  <rect x="942" y="476" width="318" height="144" rx="0" fill="#FDFBF6"/>
  <circle cx="1010" cy="548" r="42" fill="#CBAF87"/>
  <rect x="1078" y="522" width="124" height="18" rx="9" fill="#30475E"/>
  <rect x="1078" y="556" width="104" height="14" rx="7" fill="#9AA8B5"/>
  <rect x="1078" y="586" width="86" height="14" rx="7" fill="#C7D6E4"/>
  <rect x="900" y="748" width="170" height="26" rx="13" fill="#F6E1BF"/>
  <rect x="900" y="794" width="300" height="16" rx="8" fill="#9DB2C7"/>
  <rect x="230" y="882" width="1120" height="118" rx="28" fill="#FFFFFF"/>
  <rect x="278" y="926" width="230" height="20" rx="10" fill="#30475E"/>
  <rect x="278" y="962" width="150" height="16" rx="8" fill="#A6B8C8"/>
  <rect x="1130" y="914" width="160" height="42" rx="21" fill="#CBAF87"/>
  <defs>
    <linearGradient id="bg" x1="80" y1="40" x2="1500" y2="1160" gradientUnits="userSpaceOnUse">
      <stop stop-color="#23384C"/>
      <stop offset="0.5" stop-color="#35516B"/>
      <stop offset="1" stop-color="#4A6785"/>
    </linearGradient>
  </defs>
</svg>
