<svg width="1200" height="900" viewBox="0 0 1200 900" fill="none" xmlns="http://www.w3.org/2000/svg">
  <rect width="1200" height="900" rx="48" fill="url(#bg)"/>
  <circle cx="1000" cy="180" r="160" fill="#EED8B4" fill-opacity="0.26"/>
  <rect x="86" y="86" width="1028" height="728" rx="42" fill="#FFFFFF" fill-opacity="0.94"/>
  <rect x="132" y="132" width="936" height="90" rx="28" fill="#30475E"/>
  <rect x="176" y="165" width="190" height="24" rx="12" fill="#F0DEC0"/>
  <rect x="150" y="274" width="370" height="490" rx="34" fill="#E9F1FA"/>
  <rect x="560" y="274" width="470" height="164" rx="30" fill="#F5F0E6"/>
  <rect x="560" y="470" width="470" height="294" rx="30" fill="#EEF4FB"/>
  <circle cx="335" cy="410" r="92" fill="#CBAF87"/>
  <path d="M250 590C250 540.295 290.295 500 340 500C389.705 500 430 540.295 430 590V618H250V590Z" fill="#30475E"/>
  <rect x="634" y="322" width="144" height="18" rx="9" fill="#30475E"/>
  <rect x="634" y="360" width="210" height="14" rx="7" fill="#9DAFBE"/>
  <rect x="634" y="396" width="176" height="14" rx="7" fill="#C4D3E1"/>
  <rect x="618" y="528" width="164" height="118" rx="26" fill="#30475E"/>
  <circle cx="700" cy="588" r="28" fill="#F0DEC0"/>
  <rect x="822" y="542" width="150" height="18" rx="9" fill="#30475E"/>
  <rect x="822" y="580" width="118" height="14" rx="7" fill="#9AAEBF"/>
  <rect x="822" y="614" width="140" height="14" rx="7" fill="#C3D3E2"/>
  <rect x="618" y="678" width="354" height="42" rx="21" fill="#CBAF87"/>
  <defs>
    <linearGradient id="bg" x1="42" y1="32" x2="1154" y2="862" gradientUnits="userSpaceOnUse">
      <stop stop-color="#23384C"/>
      <stop offset="1" stop-color="#4C6884"/>
    </linearGradient>
  </defs>
</svg>
