<svg width="1200" height="900" viewBox="0 0 1200 900" fill="none" xmlns="http://www.w3.org/2000/svg">
  <rect width="1200" height="900" rx="48" fill="url(#bg)"/>
  <rect x="80" y="80" width="1040" height="740" rx="38" fill="#FDFEFF" fill-opacity="0.94"/>
  <rect x="130" y="130" width="940" height="86" rx="26" fill="#30475E"/>
  <rect x="170" y="161" width="170" height="24" rx="12" fill="#F0DEC0"/>
  <rect x="140" y="270" width="430" height="470" rx="32" fill="#E9F1FA"/>
  <rect x="620" y="270" width="390" height="220" rx="30" fill="#F5EFE4"/>
  <rect x="620" y="524" width="390" height="216" rx="30" fill="#30475E"/>
  <circle cx="355" cy="430" r="116" fill="#CBAF87"/>
  <path d="M246 622C246 561.801 294.801 513 355 513C415.199 513 464 561.801 464 622V654H246V622Z" fill="#30475E"/>
  <rect x="685" y="338" width="120" height="18" rx="9" fill="#30475E"/>
  <rect x="685" y="378" width="180" height="14" rx="7" fill="#A0AFBC"/>
  <rect x="685" y="414" width="140" height="14" rx="7" fill="#C2D2E2"/>
  <rect x="682" y="593" width="150" height="22" rx="11" fill="#F0DEC0"/>
  <rect x="682" y="635" width="220" height="14" rx="7" fill="#B9CAD9"/>
  <circle cx="930" cy="636" r="48" fill="#F7FBFF" fill-opacity="0.15"/>
  <defs>
    <linearGradient id="bg" x1="50" y1="40" x2="1150" y2="860" gradientUnits="userSpaceOnUse">
      <stop stop-color="#24384C"/>
      <stop offset="1" stop-color="#567089"/>
    </linearGradient>
  </defs>
</svg>
